# xmcd
#
# Track frame offsets:
#	150
#	14140
#	22060
#	37825
#	52977
#	62497
#	73367
#	85335
#	98422
#	113302
#	130450
#
# Disc length: 2000 seconds
#
# Revision: 1
# Processed by: cddbd v1.4PL0 Copyright (c) Steve Scherf et al.
# Submitted via: audiograbber 1.80.04
#
DISCID=8c07ce0b
DTITLE=The Ramblers - Riding In The Wind
DYEAR=1998
DGENRE=Crossover
TTITLE0=Rambler
TTITLE1=Caroline
TTITLE2=Ridin In The Wind
TTITLE3=Whose Heart You Lyin To .. (Yours Or Mine?)
TTITLE4=Lil Darlin
TTITLE5=Never Had A Reason
TTITLE6=Missin Mississippi Tonight
TTITLE7=Two Timin Woman 
TTITLE8=C'est Bon
TTITLE9=No Stranger To Loneliness
TTITLE10=Sweet Home Alabama
EXTD=
EXTT0=
EXTT1=
EXTT2=
EXTT3=
EXTT4=
EXTT5=
EXTT6=
EXTT7=
EXTT8=
EXTT9=
EXTT10=
PLAYORDER=
